<svg version="1.1" viewBox="0.0 0.0 960.0 720.0" fill="none" stroke="none" stroke-linecap="square" stroke-miterlimit="10" xmlns:xlink="http://www.w3.org/1999/xlink" xmlns="http://www.w3.org/2000/svg"><clipPath id="p.0"><path d="m0 0l960.0 0l0 720.0l-960.0 0l0 -720.0z" clip-rule="nonzero"/></clipPath><g clip-path="url(#p.0)"><path fill="#000000" fill-opacity="0.0" d="m0 0l960.0 0l0 720.0l-960.0 0z" fill-rule="evenodd"/><path fill="#000000" fill-opacity="0.0" d="m195.41077 175.77428l35.401566 0" fill-rule="evenodd"/><path stroke="#ffffff" stroke-width="16.0" stroke-linejoin="round" stroke-linecap="butt" d="m195.41077 175.77428l35.401566 0" fill-rule="evenodd"/><path fill="#000000" fill-opacity="0.0" d="m220.32414 175.77428l10.48819 28.850388" fill-rule="evenodd"/><path stroke="#ffffff" stroke-width="16.0" stroke-linejoin="round" stroke-linecap="butt" d="m220.32414 175.77428l10.48819 28.850388" fill-rule="evenodd"/><path fill="#000000" fill-opacity="0.0" d="m246.55774 142.98688l-14.425186 57.70079" fill-rule="evenodd"/><path stroke="#ffffff" stroke-width="16.0" stroke-linejoin="round" stroke-linecap="butt" d="m246.55774 142.98688l-14.425186 57.70079" fill-rule="evenodd"/><path fill="#000000" fill-opacity="0.0" d="m246.55774 149.53806l9.1653595 81.32283" fill-rule="evenodd"/><path stroke="#ffffff" stroke-width="16.0" stroke-linejoin="round" stroke-linecap="butt" d="m246.55774 149.53806l9.1653595 81.32283" fill-rule="evenodd"/><path fill="#000000" fill-opacity="0.0" d="m259.67322 226.92126l20.97638 -152.12599" fill-rule="evenodd"/><path stroke="#ffffff" stroke-width="16.0" stroke-linejoin="round" stroke-linecap="butt" d="m259.67322 226.92126l20.97638 -152.12599" fill-rule="evenodd"/><path fill="#000000" fill-opacity="0.0" d="m283.92783 78.08662l30.173218 270.14172" fill-rule="evenodd"/><path stroke="#ffffff" stroke-width="16.0" stroke-linejoin="round" stroke-linecap="butt" d="m283.92783 78.08662l30.173218 270.14172" fill-rule="evenodd"/><path fill="#000000" fill-opacity="0.0" d="m317.37927 342.33072l19.685028 -183.62206" fill-rule="evenodd"/><path stroke="#ffffff" stroke-width="16.0" stroke-linejoin="round" stroke-linecap="butt" d="m317.37927 342.33072l19.685028 -183.62206" fill-rule="evenodd"/><path fill="#000000" fill-opacity="0.0" d="m337.0643 158.04724l26.204742 185.6063" fill-rule="evenodd"/><path stroke="#ffffff" stroke-width="16.0" stroke-linejoin="round" stroke-linecap="butt" d="m337.0643 158.04724l26.204742 185.6063" fill-rule="evenodd"/><path fill="#000000" fill-opacity="0.0" d="m368.56036 342.33334l26.204742 -268.8504" fill-rule="evenodd"/><path stroke="#ffffff" stroke-width="16.0" stroke-linejoin="round" stroke-linecap="butt" d="m368.56036 342.33334l26.204742 -268.8504" fill-rule="evenodd"/><path fill="#000000" fill-opacity="0.0" d="m420.98557 78.72441l22.299225 268.8504" fill-rule="evenodd"/><path stroke="#ffffff" stroke-width="16.0" stroke-linejoin="round" stroke-linecap="butt" d="m420.98557 78.72441l22.299225 268.8504" fill-rule="evenodd"/><path fill="#000000" fill-opacity="0.0" d="m448.52625 346.2651l30.141724 -267.55908" fill-rule="evenodd"/><path stroke="#ffffff" stroke-width="16.0" stroke-linejoin="round" stroke-linecap="butt" d="m448.52625 346.2651l30.141724 -267.55908" fill-rule="evenodd"/><path fill="#000000" fill-opacity="0.0" d="m483.9357 344.95276l26.236206 -263.59055" fill-rule="evenodd"/><path stroke="#ffffff" stroke-width="16.0" stroke-linejoin="round" stroke-linecap="butt" d="m483.9357 344.95276l26.236206 -263.59055" fill-rule="evenodd"/><path fill="#000000" fill-opacity="0.0" d="m515.43964 78.72179l27.496033 267.52753" fill-rule="evenodd"/><path stroke="#ffffff" stroke-width="16.0" stroke-linejoin="round" stroke-linecap="butt" d="m515.43964 78.72179l27.496033 267.52753" fill-rule="evenodd"/><path fill="#000000" fill-opacity="0.0" d="m546.8858 346.2651l17.039368 -266.23624" fill-rule="evenodd"/><path stroke="#ffffff" stroke-width="16.0" stroke-linejoin="round" stroke-linecap="butt" d="m546.8858 346.2651l17.039368 -266.23624" fill-rule="evenodd"/><path fill="#000000" fill-opacity="0.0" d="m565.24805 77.41207l39.338562 271.46457" fill-rule="evenodd"/><path stroke="#ffffff" stroke-width="16.0" stroke-linejoin="round" stroke-linecap="butt" d="m565.24805 77.41207l39.338562 271.46457" fill-rule="evenodd"/><path fill="#000000" fill-opacity="0.0" d="m609.83856 350.19946l11.779541 -205.92125" fill-rule="evenodd"/><path stroke="#ffffff" stroke-width="16.0" stroke-linejoin="round" stroke-linecap="butt" d="m609.83856 350.19946l11.779541 -205.92125" fill-rule="evenodd"/><path fill="#000000" fill-opacity="0.0" d="m625.5551 144.29396l13.13385 76.06299" fill-rule="evenodd"/><path stroke="#ffffff" stroke-width="16.0" stroke-linejoin="round" stroke-linecap="butt" d="m625.5551 144.29396l13.13385 76.06299" fill-rule="evenodd"/><path fill="#000000" fill-opacity="0.0" d="m642.6155 217.74278l10.48822 -55.08661" fill-rule="evenodd"/><path stroke="#ffffff" stroke-width="16.0" stroke-linejoin="round" stroke-linecap="butt" d="m642.6155 217.74278l10.48822 -55.08661" fill-rule="evenodd"/><path fill="#000000" fill-opacity="0.0" d="m657.0302 158.07349l27.559021 64.25197" fill-rule="evenodd"/><path stroke="#ffffff" stroke-width="16.0" stroke-linejoin="round" stroke-linecap="butt" d="m657.0302 158.07349l27.559021 64.25197" fill-rule="evenodd"/><path fill="#000000" fill-opacity="0.0" d="m686.5486 224.27821l11.149597 -66.866135" fill-rule="evenodd"/><path stroke="#ffffff" stroke-width="16.0" stroke-linejoin="round" stroke-linecap="butt" d="m686.5486 224.27821l11.149597 -66.866135" fill-rule="evenodd"/><path fill="#000000" fill-opacity="0.0" d="m699.6601 163.96326l23.590576 23.62204" fill-rule="evenodd"/><path stroke="#ffffff" stroke-width="16.0" stroke-linejoin="round" stroke-linecap="butt" d="m699.6601 163.96326l23.590576 23.62204" fill-rule="evenodd"/><path fill="#000000" fill-opacity="0.0" d="m719.9908 184.94751l44.59845 0" fill-rule="evenodd"/><path stroke="#ffffff" stroke-width="16.0" stroke-linejoin="round" stroke-linecap="butt" d="m719.9908 184.94751l44.59845 0" fill-rule="evenodd"/></g></svg>